<svg version="1.1" xmlns="http://www.w3.org/2000/svg" xmlns:xlink="http://www.w3.org/1999/xlink" width="80" height="32" viewBox="0,0,80,32"><g transform="translate(-208,-164)"><g data-paper-data="{&quot;isPaintingLayer&quot;:true}" fill-rule="nonzero" stroke="none" stroke-width="1" stroke-linecap="butt" stroke-linejoin="miter" stroke-miterlimit="10" stroke-dasharray="" stroke-dashoffset="0" style="mix-blend-mode: normal"><path d="M232,172l8,8h-16z" fill="#990000"/><path d="M232,173.5l6.5,6.5h-13z" fill="#b30000"/><path d="M232,175l5,5h-10z" fill="#cc0000"/><path d="M232,178l2,2h-4z" fill="#d40000"/><path d="M216,164l8,16h-16z" fill="#990000"/><path d="M216,167l6.5,13h-13z" fill="#b30000"/><path d="M216,170l5,10h-10z" fill="#cc0000"/><path d="M216,176l2,4h-4z" fill="#d40000"/><path d="M248,172l4,8h-8z" fill="#990000"/><path d="M248,173.5l3.25,6.5h-6.5z" fill="#b30000"/><path d="M248,175l2.5,5h-5z" fill="#cc0000"/><path d="M248,178l1,2h-2z" fill="#d40000"/><g><path d="M208,180l16,16h-16z" fill="#990000"/><path d="M208,182l14,14h-14z" fill="#b30000"/><path d="M208,184l12,12h-12z" fill="#cc0000"/><path d="M208,188l8,8h-8z" fill="#e60000"/></g><g><path d="M224,180l32,16h-32z" fill="#990000"/><path d="M224,182l28,14h-28z" fill="#b30000"/><path d="M224,184l24,12h-24z" fill="#cc0000"/><path d="M224,188l16,8h-16z" fill="#e60000"/></g><g><path d="M260,172l4,8h-8z" fill="#990000"/><path d="M260,173.5l3.25,6.5h-6.5z" fill="#b30000"/><path d="M260,175l2.5,5h-5z" fill="#cc0000"/><path d="M260,178l1,2h-2z" fill="#d40000"/></g><g><path d="M284,172l4,8h-8z" fill="#990000"/><path d="M284,173.5l3.25,6.5h-6.5z" fill="#b30000"/><path d="M284,175l2.5,5h-5z" fill="#cc0000"/><path d="M284,178l1,2h-2z" fill="#d40000"/></g><g data-paper-data="{&quot;index&quot;:null}"><path d="M288,196h-32l32,-16z" fill="#990000"/><path d="M288,196h-28l28,-14z" fill="#b30000"/><path d="M288,196h-24l24,-12z" fill="#cc0000"/><path d="M288,196h-16l16,-8z" fill="#e60000"/></g></g></g></svg>